<?xml version="1.0" encoding="iso-8859-1"?>
<!-- Generator: Adobe Illustrator 19.0.0, SVG Export Plug-In . SVG Version: 6.00 Build 0)  -->
<svg version="1.1" id="Layer_1" xmlns="http://www.w3.org/2000/svg" xmlns:xlink="http://www.w3.org/1999/xlink" x="0px" y="0px"
	 viewBox="0 0 511.999 511.999" style="enable-background:new 0 0 511.999 511.999;" xml:space="preserve">
<path style="fill:#533F29;" d="M310.088,504.637c-2.812,4.179-7.362,6.862-12.379,7.299c-5.017,0.437-9.962-1.421-13.456-5.048
	c-20.39-21.163-34.079-53.578-40.784-96.7c-5.893-37.897-4.059-70.235-3.977-71.594l32.959,1.953
	c-1.734,29.77,1.94,108.452,35.842,143.64c5.336,5.539,6.094,14.06,1.801,20.441L310.088,504.637z"/>
<path style="fill:#A8DA64;" d="M176.044,92.304c-2.495-7.723-0.454-16.192,5.284-21.931l67.314-67.314
	c4.079-4.079,10.691-4.079,14.771,0l67.314,67.314c5.738,5.738,7.779,14.208,5.284,21.931L256.03,339.865L176.044,92.304z"/>
<g>
	<path style="fill:#7FA24D;" d="M370.966,131.499c3.59-6.5,10.52-10.442,17.942-10.205l87.059,2.768
		c5.276,0.167,9.416,4.581,9.248,9.856l-2.768,87.059c-0.236,7.422-4.61,14.087-11.325,17.257L255.865,339.865L370.966,131.499z"/>
	<path style="fill:#7FA24D;" d="M438.386,282.091c5.688-1.793,11.903-0.249,16.09,3.998l49.118,49.823
		c2.977,3.019,2.942,7.879-0.077,10.855l-49.823,49.118c-4.247,4.187-10.483,5.642-16.145,3.769L256.03,339.577L438.386,282.091z"/>
</g>
<path style="fill:#A8DA64;" d="M141.033,131.499c-3.59-6.5-10.52-10.442-17.942-10.205l-87.059,2.768
	c-5.275,0.167-9.416,4.581-9.248,9.856l2.768,87.059c0.236,7.422,4.61,14.087,11.325,17.257l215.258,101.631L141.033,131.499z"/>
<path style="fill:#7FA24D;" d="M330.727,70.373L263.413,3.059c-2.005-2.005-4.623-3.019-7.251-3.053v339.44l79.849-247.143
	C338.507,84.582,336.467,76.112,330.727,70.373z"/>
<path style="fill:#A8DA64;" d="M73.614,282.091c-5.688-1.793-11.903-0.249-16.09,3.998L8.405,335.912
	c-2.977,3.019-2.942,7.879,0.077,10.855l49.823,49.118c4.247,4.187,10.483,5.642,16.145,3.769l181.519-60.077L73.614,282.091z"/>
<g>
</g>
<g>
</g>
<g>
</g>
<g>
</g>
<g>
</g>
<g>
</g>
<g>
</g>
<g>
</g>
<g>
</g>
<g>
</g>
<g>
</g>
<g>
</g>
<g>
</g>
<g>
</g>
<g>
</g>
</svg>
