<?xml version="1.0" encoding="UTF-8" standalone="no"?> <svg xmlns="http://www.w3.org/2000/svg" xmlns:xlink="http://www.w3.org/1999/xlink" viewBox="0 0 64 64"><defs><style>.cls-1{fill:url(#linear-gradient);}</style><linearGradient id="linear-gradient" x1="6.32" y1="32" x2="57.68" y2="32" gradientUnits="userSpaceOnUse"><stop offset="0" stop-color="#17a6d7"/><stop offset="1" stop-color="#9d31fe"/></linearGradient></defs><g id="Layer_55" data-name="Layer 55"><path class="cls-1" d="M57.57,51.77a1.51,1.51,0,0,0-1.51-2.05C32.87,50,20.58,21.81,36.55,5a1.49,1.49,0,0,0-1.13-2.52A29.59,29.59,0,0,0,6.32,32C6.23,58.7,39.91,71.85,57.57,51.77ZM9.32,32A26.61,26.61,0,0,1,32,5.78c-13.5,18.06-1.68,44.49,20.51,46.76C35.52,66.63,9.22,54.14,9.32,32Z"/></g></svg>