<?xml version="1.0" encoding="UTF-8" standalone="no"?>
<svg style="fill:none;stroke:#000;stroke-linecap:round;stroke-linejoin:round;stroke-width:2px"
    xmlns="http://www.w3.org/2000/svg" viewBox="0 0 43.59 40.14">
    <title>Asset 1</title>
    <g id="Layer_2">
        <g id="Layer_2-2">
            <path class="cls-1"
                d="M21.46,1C9.83,1,1,8.74,1,18.28a12.83,12.83,0,0,0,5.41,11h0A15.59,15.59,0,0,1,6,37.4a1.35,1.35,0,0,0,1.74,1.66l10.59-3.75a23.26,23.26,0,0,0,3.26.25c11.63,0,21-7.74,21-17.28S33.09,1,21.46,1Z" />
            <path class="cls-1" d="M18.15,35.31a23.69,23.69,0,0,1-6.8-2.44" />
            <circle cx="12.84" cy="18.87" r="2.37" />
            <circle cx="22.12" cy="18.87" r="2.37" />
            <circle cx="31.4" cy="18.87" r="2.37" />
        </g>
    </g>
</svg>