<?xml version="1.0" encoding="UTF-8" standalone="no"?> <svg width="48" height="48" viewBox="0 0 48 48" fill="none" xmlns="http://www.w3.org/2000/svg">
<path d="M41 17.5H30V11C29.9984 9.6744 29.4711 8.40356 28.5338 7.46622C27.5964 6.52888 26.3256 6.00159 25 6H7C5.6744 6.00159 4.40356 6.52888 3.46622 7.46622C2.52888 8.40356 2.00159 9.6744 2 11V23C2.00159 24.3256 2.52888 25.5964 3.46622 26.5338C4.40356 27.4711 5.6744 27.9984 7 28V30.09C6.99925 30.4845 7.11591 30.8704 7.33512 31.1984C7.55434 31.5264 7.86619 31.7818 8.231 31.932C8.59741 32.0846 9.00093 32.1247 9.39021 32.0472C9.77949 31.9698 10.1369 31.7782 10.417 31.497C10.4535 31.4619 10.487 31.4238 10.517 31.383L13.005 28H18V34.5C18.0016 35.8256 18.5289 37.0964 19.4662 38.0338C20.4036 38.9711 21.6744 39.4984 23 39.5H34.086L37.586 43C37.8657 43.2796 38.222 43.47 38.6099 43.5472C38.9978 43.6243 39.3999 43.5847 39.7653 43.4334C40.1307 43.282 40.443 43.0257 40.6628 42.6969C40.8826 42.3681 40.9999 41.9815 41 41.586V39.5C42.3256 39.4984 43.5964 38.9711 44.5338 38.0338C45.4711 37.0964 45.9984 35.8256 46 34.5V22.5C45.9984 21.1744 45.4711 19.9036 44.5338 18.9662C43.5964 18.0289 42.3256 17.5016 41 17.5V17.5ZM12.5 26C12.3442 26.0008 12.1907 26.038 12.0518 26.1087C11.9129 26.1794 11.7924 26.2815 11.7 26.407L9 30.067V27C9 26.7348 8.89464 26.4804 8.70711 26.2929C8.51957 26.1054 8.26522 26 8 26H7C6.20435 26 5.44129 25.6839 4.87868 25.1213C4.31607 24.5587 4 23.7956 4 23V11C4 10.2044 4.31607 9.44129 4.87868 8.87868C5.44129 8.31607 6.20435 8 7 8H25C25.7956 8 26.5587 8.31607 27.1213 8.87868C27.6839 9.44129 28 10.2044 28 11V17.5H23C21.9361 17.5031 20.9015 17.8485 20.049 18.485L16.91 11.585C16.8305 11.4104 16.7024 11.2624 16.541 11.1586C16.3797 11.0548 16.1919 10.9996 16 10.9996C15.8081 10.9996 15.6203 11.0548 15.459 11.1586C15.2976 11.2624 15.1695 11.4104 15.09 11.585L10.09 22.585C10.0358 22.7047 10.0057 22.834 10.0015 22.9654C9.99732 23.0968 10.0191 23.2277 10.0655 23.3507C10.1119 23.4736 10.1822 23.5862 10.2722 23.682C10.3622 23.7779 10.4702 23.855 10.59 23.909C10.7185 23.9685 10.8584 23.9996 11 24C11.1919 23.9999 11.3798 23.9447 11.5411 23.8408C11.7025 23.7368 11.8305 23.5887 11.91 23.414L13.462 20H18.54L18.611 20.155C18.2158 20.8738 18.0058 21.6797 18 22.5V26H12.5ZM17.631 18H14.371L16 14.416L17.631 18ZM44 34.5C44 35.2956 43.6839 36.0587 43.1213 36.6213C42.5587 37.1839 41.7956 37.5 41 37.5H40C39.7348 37.5 39.4804 37.6054 39.2929 37.7929C39.1054 37.9804 39 38.2348 39 38.5V41.586L35.207 37.793C35.0195 37.6054 34.7652 37.5001 34.5 37.5H23C22.2044 37.5 21.4413 37.1839 20.8787 36.6213C20.3161 36.0587 20 35.2956 20 34.5V22.5C20 21.7044 20.3161 20.9413 20.8787 20.3787C21.4413 19.8161 22.2044 19.5 23 19.5H41C41.7956 19.5 42.5587 19.8161 43.1213 20.3787C43.6839 20.9413 44 21.7044 44 22.5V34.5Z" fill="black"/>
<path d="M37 25H33V23C33 22.7348 32.8946 22.4804 32.7071 22.2929C32.5196 22.1054 32.2652 22 32 22C31.7348 22 31.4804 22.1054 31.2929 22.2929C31.1054 22.4804 31 22.7348 31 23V25H27C26.7348 25 26.4804 25.1054 26.2929 25.2929C26.1054 25.4804 26 25.7348 26 26C26 26.2652 26.1054 26.5196 26.2929 26.7071C26.4804 26.8946 26.7348 27 27 27H34.42C34.1751 28.6989 33.3111 30.2474 31.994 31.348C31.2247 30.7054 30.6029 29.9046 30.171 29C30.1166 28.8783 30.0385 28.7687 29.9412 28.6776C29.8438 28.5865 29.7293 28.5158 29.6042 28.4697C29.4792 28.4235 29.3462 28.4028 29.213 28.4088C29.0798 28.4148 28.9492 28.4474 28.8288 28.5046C28.7084 28.5618 28.6007 28.6425 28.5119 28.7419C28.4231 28.8413 28.3552 28.9575 28.3119 29.0836C28.2687 29.2097 28.2512 29.3432 28.2603 29.4762C28.2694 29.6092 28.305 29.739 28.365 29.858C28.8297 30.8215 29.4649 31.6928 30.24 32.43C29.3513 32.8085 28.3949 33.0024 27.429 33C27.2995 33.0006 27.1714 33.0271 27.0523 33.0781C26.9332 33.129 26.8255 33.2032 26.7355 33.2964C26.6456 33.3896 26.5752 33.4999 26.5286 33.6207C26.482 33.7416 26.46 33.8705 26.464 34C26.4721 34.2689 26.585 34.524 26.7785 34.7108C26.9721 34.8976 27.231 35.0014 27.5 35C29.0893 34.9994 30.6496 34.5748 32.02 33.77C33.4031 34.5715 34.9725 34.9956 36.571 35C36.7005 34.9994 36.8286 34.9729 36.9477 34.9219C37.0668 34.871 37.1745 34.7968 37.2645 34.7036C37.3544 34.6104 37.4248 34.5001 37.4714 34.3793C37.518 34.2584 37.54 34.1295 37.536 34C37.5279 33.7311 37.415 33.476 37.2215 33.2892C37.0279 33.1024 36.769 32.9986 36.5 33C35.5645 32.9964 34.6393 32.8038 33.78 32.434C35.2696 30.9855 36.2101 29.0649 36.441 27H37C37.2652 27 37.5196 26.8946 37.7071 26.7071C37.8946 26.5196 38 26.2652 38 26C38 25.7348 37.8946 25.4804 37.7071 25.2929C37.5196 25.1054 37.2652 25 37 25Z" fill="black"/>
</svg>
