<?xml version="1.0" encoding="iso-8859-1"?>
<!-- Generator: Adobe Illustrator 18.0.0, SVG Export Plug-In . SVG Version: 6.00 Build 0)  -->
<!DOCTYPE svg PUBLIC "-//W3C//DTD SVG 1.1//EN" "http://www.w3.org/Graphics/SVG/1.1/DTD/svg11.dtd">
<svg version="1.1" id="Capa_1" xmlns="http://www.w3.org/2000/svg" xmlns:xlink="http://www.w3.org/1999/xlink" x="0px" y="0px"
	 viewBox="0 0 425.55 425.55" style="enable-background:new 0 0 425.55 425.55;" xml:space="preserve">
<g>
	<g>
		<path style="fill:none;" d="M240.571,44.917C237.085,32.852,225.948,24,212.775,24c-13.173,0-24.311,8.852-27.796,20.917
			c8.978-1.862,18.274-2.844,27.796-2.844S231.593,43.055,240.571,44.917z"/>
		<path style="fill:none;" d="M325.442,237.723v-58.983c0-62.124-50.543-112.666-112.667-112.666
			c-62.125,0-112.667,50.542-112.667,112.666v58.885c-0.015,1.847-0.297,20.852-5.081,44.229H330.52
			C325.739,258.499,325.458,239.527,325.442,237.723z M212.775,106.909c-38.395,0-69.633,31.236-69.633,69.631
			c0,6.627-5.373,12-12,12c-6.627,0-12-5.373-12-12c0-51.629,42.004-93.631,93.633-93.631c6.627,0,12,5.372,12,12
			C224.775,101.536,219.402,106.909,212.775,106.909z"/>
		<path style="fill:none;" d="M212.775,401.55c18.317,0,34.3-13.206,39.431-30.766h-78.863
			C178.474,388.344,194.458,401.55,212.775,401.55z"/>
		<path style="fill:#73D0F4;" d="M357.878,346.784c-9.545-12.045-16.277-26.519-21.031-40.932H88.701
			c-4.754,14.415-11.486,28.889-21.03,40.932H357.878z"/>
		<path style="fill:#3D6889;" d="M396.419,347.848c-45.223-20.423-46.943-108.085-46.977-110.297v-58.811
			c0-56.602-34.588-105.274-83.738-125.998C265.599,23.642,241.897,0,212.775,0c-29.123,0-52.824,23.643-52.93,52.741
			c-49.148,20.724-83.737,69.396-83.737,125.998v58.811c-0.032,2.212-1.754,89.874-46.978,110.297
			c-5.152,2.327-7.983,7.935-6.792,13.462c1.19,5.527,6.077,9.475,11.731,9.475h114.648c2.35,12.929,8.464,24.957,17.814,34.7
			c12.419,12.939,28.842,20.065,46.242,20.065c17.401,0,33.824-7.126,46.242-20.065c9.352-9.743,15.465-21.772,17.814-34.7h114.648
			c5.654,0,10.541-3.947,11.732-9.475C404.401,355.782,401.571,350.175,396.419,347.848z M336.847,305.853
			c4.754,14.413,11.486,28.887,21.031,40.932H67.67c9.544-12.043,16.276-26.517,21.03-40.932H336.847z M212.775,24
			c13.173,0,24.311,8.852,27.796,20.917c-8.978-1.862-18.275-2.844-27.796-2.844s-18.818,0.981-27.796,2.844
			C188.464,32.852,199.602,24,212.775,24z M100.108,237.624v-58.885c0-62.124,50.542-112.666,112.667-112.666
			c62.125,0,112.667,50.542,112.667,112.666v58.983c0.016,1.805,0.297,20.776,5.078,44.13H95.027
			C99.811,258.476,100.093,239.471,100.108,237.624z M212.775,401.55c-18.316,0-34.301-13.206-39.432-30.766h78.863
			C247.075,388.344,231.092,401.55,212.775,401.55z"/>
		<path style="fill:#3D6889;" d="M212.775,82.909c-51.629,0-93.633,42.002-93.633,93.631c0,6.627,5.373,12,12,12
			c6.627,0,12-5.373,12-12c0-38.395,31.237-69.631,69.633-69.631c6.627,0,12-5.373,12-12
			C224.775,88.281,219.402,82.909,212.775,82.909z"/>
	</g>
</g>
<g>
</g>
<g>
</g>
<g>
</g>
<g>
</g>
<g>
</g>
<g>
</g>
<g>
</g>
<g>
</g>
<g>
</g>
<g>
</g>
<g>
</g>
<g>
</g>
<g>
</g>
<g>
</g>
<g>
</g>
</svg>
