<?xml version="1.0" encoding="utf-8"?><!-- Generator: Adobe Illustrator 23.0.3, SVG Export Plug-In . SVG Version: 6.00 Build 0)  -->
<svg version="1.1" id="Layer_1" xmlns="http://www.w3.org/2000/svg"
    xmlns:xlink="http://www.w3.org/1999/xlink" x="0px" y="0px" viewBox="0 0 512 512"
    style="enable-background:new 0 0 512 512;"
    xml:space="preserve">
<!--<style type="text/css">-->
    <!--	.st0{fill:none;stroke:#1D1D1B;stroke-width:15;stroke-miterlimit:10;}-->
    <!--	.st1{fill:#1D1D1B;}-->
    <!--	.st2{fill:none;stroke:#1D1D1B;stroke-width:13;stroke-miterlimit:10;}-->
    <!--	.st3{fill:none;stroke:#1D1D1B;stroke-width:20;stroke-linecap:round;stroke-linejoin:round;stroke-miterlimit:10;}-->
    <!--	.st4{fill:none;stroke:#1D1D1B;stroke-width:14.8472;stroke-miterlimit:10;}-->
    <!--	.st5{fill:#1D1D1B;stroke:#1D1D1B;stroke-width:14.8472;stroke-miterlimit:10;}-->
    <!--	.st6{fill:none;stroke:#1D1D1B;stroke-width:9.8981;stroke-linecap:round;stroke-linejoin:round;stroke-miterlimit:10;}-->
    <!--</style>-->
    <path class="st4" d="M395.2,460H119.04c-36.41,0-65.92-29.51-65.92-65.92V117.92C53.12,81.51,82.64,52,119.04,52H395.2
	c36.41,0,65.92,29.51,65.92,65.92v276.16C461.12,430.49,431.61,460,395.2,460z" />
    <path class="st4" d="M358.23,199.43v69.88c0,55.87-45.28,101.11-101.11,101.11c-55.83,0-101.11-45.23-101.11-101.11v-69.88
	c37.46-4.5,70.67-22.82,94.38-49.69c2.33-2.62,4.6-5.34,6.73-8.17c2.13,2.82,4.4,5.54,6.73,8.17
	C287.56,176.62,320.77,194.93,358.23,199.43z" />
</svg>
